<svg xmlns="http://www.w3.org/2000/svg" fill="none" viewBox="0 0 24 24">
  <path fill="#212121" d="M3.441 9.956a4.926 4.926 0 0 0 6.233 7.57l4.256 4.257a.773.773 0 0 0 1.169-1.007l-.075-.086-4.217-4.219A4.927 4.927 0 0 0 3.44 9.956ZM16.654 16.5c-.225 1.288-.548 2.456-.952 3.454l.03.029.124.14c.22.295.344.623.378.952A10.035 10.035 0 0 0 20.96 16.5h-4.306Zm-4.404 0 2.284 2.286c.202-.6.381-1.268.53-1.991l.057-.295h-2.87Zm-2.936-5.45a3.38 3.38 0 1 1-4.78 4.778 3.38 3.38 0 0 1 4.78-4.779ZM15.45 10l-3.7-.001A5.936 5.936 0 0 1 12.642 15h2.71a25.926 25.926 0 0 0 .132-4.512L15.45 10Zm1.507 0a28.176 28.176 0 0 1-.033 4.42l-.057.58h4.703a10.047 10.047 0 0 0 .258-5h-4.87Zm-2.095-7.594c.881 1.35 1.536 3.33 1.883 5.654l.062.44h4.59a10.03 10.03 0 0 0-6.109-5.957l-.304-.1-.122-.037Zm-2.836-.405c-1.277 0-2.561 2.383-3.158 5.84.465.16.912.38 1.331.658h5.088c-.54-3.808-1.905-6.498-3.261-6.498Zm-2.837.405A10.027 10.027 0 0 0 2.654 8.5l.995-.001a5.921 5.921 0 0 1 3.743-.968c.322-1.857.846-3.469 1.527-4.679l.162-.275.108-.17Z"/>
</svg>
